<svg width="1280" height="720" xmlns="http://www.w3.org/2000/svg" xmlns:xlink="http://www.w3.org/1999/xlink" overflow="hidden"><defs><clipPath id="clip0"><rect x="0" y="0" width="1280" height="720"/></clipPath><clipPath id="clip1"><rect x="383" y="511" width="76" height="76"/></clipPath><clipPath id="clip2"><rect x="383" y="511" width="76" height="76"/></clipPath><clipPath id="clip3"><rect x="383" y="511" width="76" height="76"/></clipPath><clipPath id="clip4"><rect x="392" y="270" width="72" height="73"/></clipPath><clipPath id="clip5"><rect x="392" y="270" width="72" height="73"/></clipPath><clipPath id="clip6"><rect x="392" y="270" width="72" height="73"/></clipPath></defs><g clip-path="url(#clip0)"><rect x="0" y="0" width="1280" height="720" fill="#FFFFFF"/><rect x="219" y="133" width="255" height="240" stroke="#000000" stroke-width="8" stroke-linejoin="round" stroke-miterlimit="10" fill="none"/><rect x="219" y="373" width="255" height="239" stroke="#000000" stroke-width="8" stroke-linejoin="round" stroke-miterlimit="10" fill="none"/><rect x="474" y="133" width="254" height="240" stroke="#000000" stroke-width="8" stroke-linejoin="round" stroke-miterlimit="10" fill="none"/><rect x="474" y="373" width="254" height="239" stroke="#000000" stroke-width="8" stroke-linejoin="round" stroke-miterlimit="10" fill="none"/><rect x="308.5" y="339.5" width="77" height="67" stroke="#FFFFFF" stroke-width="1.33333" stroke-miterlimit="8" fill="#FFFFFF"/><rect x="436.5" y="219.5" width="76" height="68" stroke="#FFFFFF" stroke-width="1.33333" stroke-miterlimit="8" fill="#FFFFFF"/><rect x="564.5" y="339.5" width="76" height="67" stroke="#FFFFFF" stroke-width="1.33333" stroke-miterlimit="8" fill="#FFFFFF"/><text font-family="Calibri,Calibri_MSFontService,sans-serif" font-weight="400" font-size="24" transform="translate(312.436 246)">Empty</text><text font-family="Calibri,Calibri_MSFontService,sans-serif" font-weight="400" font-size="24" transform="translate(314.583 275)">Office</text><text font-family="Calibri,Calibri_MSFontService,sans-serif" font-weight="400" font-size="24" transform="translate(318.128 485)">Stock</text><text font-family="Calibri,Calibri_MSFontService,sans-serif" font-weight="400" font-size="24" transform="translate(315.515 514)">Room</text><text font-family="Calibri,Calibri_MSFontService,sans-serif" font-weight="400" font-size="24" transform="translate(578.098 246)">Dark</text><text font-family="Calibri,Calibri_MSFontService,sans-serif" font-weight="400" font-size="24" transform="translate(572.344 275)">Room</text><text font-family="Calibri,Calibri_MSFontService,sans-serif" font-weight="400" font-size="24" transform="translate(563.908 485)">Outside</text><g clip-path="url(#clip1)"><g clip-path="url(#clip2)"><g clip-path="url(#clip3)"><path d="M434.062 551.771 439.208 556.917 444.354 551.771 449.5 556.917 455.833 549 449.5 541.083 417.438 541.083C414.587 535.858 409.125 532.375 402.792 532.375 393.608 532.375 386.167 539.817 386.167 549 386.167 558.183 393.608 565.625 402.792 565.625 409.125 565.625 414.587 562.142 417.438 556.917L422.583 556.917 425.75 553.75 428.917 556.917 434.062 551.771ZM395.667 553.75C393.054 553.75 390.917 551.612 390.917 549 390.917 546.388 393.054 544.25 395.667 544.25 398.279 544.25 400.417 546.388 400.417 549 400.417 551.612 398.279 553.75 395.667 553.75Z" fill="#FFC000"/></g></g></g><text fill="#ED7D31" font-family="Calibri,Calibri_MSFontService,sans-serif" font-weight="400" font-size="24" transform="translate(405.997 584)">key</text><g clip-path="url(#clip4)"><g clip-path="url(#clip5)"><g clip-path="url(#clip6)"><path d="M48.9335 7.02287 57.8443 7.02287 57.8443 31.1876 48.9335 31.1876Z" fill="#FFC000" transform="matrix(0.70228 -0.712034 0.70228 0.712034 394.145 313.655)"/><path d="M39.225 24.3 8.175 55.35C6.975 56.55 6.975 58.425 8.175 59.625L12.45 63.9C13.65 65.1 15.525 65.1 16.725 63.9L47.7 32.85 56.175 32.85 39.225 15.825 39.225 24.3ZM40.8 34.35C39.9 35.25 38.475 35.25 37.65 34.35 36.75 33.45 36.75 32.025 37.65 31.2 38.55 30.3 39.975 30.3 40.8 31.2 41.7 32.025 41.7 33.45 40.8 34.35Z" fill="#FFC000" transform="matrix(1 0 0 1.01389 392 270)"/></g></g></g><text fill="#ED7D31" font-family="Calibri,Calibri_MSFontService,sans-serif" font-weight="400" font-size="24" transform="translate(406.847 353)">lamp</text><path d="M474.5 219.5 474.5 283.983" stroke="#000000" stroke-width="3" stroke-linecap="square" stroke-miterlimit="8" stroke-dasharray="9 3" fill="none" fill-rule="evenodd"/><path d="M0 0 73.9816 0.000104987" stroke="#000000" stroke-width="3" stroke-linecap="square" stroke-miterlimit="8" stroke-dasharray="9 3" fill="none" fill-rule="evenodd" transform="matrix(-1 0 0 1 639.482 373.5)"/><path d="M482.5 251.5C482.5 243.216 489.887 236.5 499 236.5 508.113 236.5 515.5 243.216 515.5 251.5 515.5 259.784 508.113 266.5 499 266.5 489.887 266.5 482.5 259.784 482.5 251.5Z" stroke="#000000" stroke-width="1.33333" stroke-miterlimit="8" fill-rule="evenodd"/><text fill="#FFFFFF" font-family="Calibri,Calibri_MSFontService,sans-serif" font-weight="400" font-size="24" transform="translate(492.375 259)">1</text><path d="M584.5 352.5C584.5 344.216 592.111 337.5 601.5 337.5 610.889 337.5 618.5 344.216 618.5 352.5 618.5 360.784 610.889 367.5 601.5 367.5 592.111 367.5 584.5 360.784 584.5 352.5Z" stroke="#000000" stroke-width="1.33333" stroke-miterlimit="8" fill-rule="evenodd"/><text fill="#FFFFFF" font-family="Calibri,Calibri_MSFontService,sans-serif" font-weight="400" font-size="24" transform="translate(594.764 359)">2</text><path d="M818.5 517.5C818.5 509.216 825.887 502.5 835 502.5 844.113 502.5 851.5 509.216 851.5 517.5 851.5 525.784 844.113 532.5 835 532.5 825.887 532.5 818.5 525.784 818.5 517.5Z" stroke="#000000" stroke-width="1.33333" stroke-miterlimit="8" fill-rule="evenodd"/><text fill="#FFFFFF" font-family="Calibri,Calibri_MSFontService,sans-serif" font-weight="400" font-size="24" transform="translate(828.192 524)">1</text><text font-family="Calibri,Calibri_MSFontService,sans-serif" font-weight="400" font-size="19" transform="translate(860.609 522)">Door must be unlocked with key.</text><path d="M818.5 553.5C818.5 545.216 825.887 538.5 835 538.5 844.113 538.5 851.5 545.216 851.5 553.5 851.5 561.784 844.113 568.5 835 568.5 825.887 568.5 818.5 561.784 818.5 553.5Z" stroke="#000000" stroke-width="1.33333" stroke-miterlimit="8" fill-rule="evenodd"/><text fill="#FFFFFF" font-family="Calibri,Calibri_MSFontService,sans-serif" font-weight="400" font-size="24" transform="translate(828.192 561)">2</text><text font-family="Calibri,Calibri_MSFontService,sans-serif" font-weight="400" font-size="19" transform="translate(860.609 559)">Door is only visible with lamp.</text><text fill="#548235" font-family="PR Number 3,PR Number 3_MSFontService,sans-serif" font-weight="500" font-size="43" transform="translate(247.554 83)">Get Lamp</text><text fill="#548235" font-family="PR Number 3,PR Number 3_MSFontService,sans-serif" font-weight="500" font-size="43" transform="translate(415.554 83)">–</text><text fill="#548235" font-family="PR Number 3,PR Number 3_MSFontService,sans-serif" font-weight="500" font-size="43" transform="translate(452.887 83)">Map &amp; Objects</text></g></svg>